<svg width="249" height="558" viewBox="0 0 249 558" fill="none" xmlns="http://www.w3.org/2000/svg">
  <g id="Stroke">
    <path d="M202.103 152.582C202.406 153.694 205.883 186.539 206.432 190.259C206.479 193.883 206.604 196.625 206.853 197.499C207.545 199.921 209.196 201.394 212.302 213.338C212.488 215.624 212.544 217.506 212.478 218.624C212.262 222.299 212.98 254.375 213.179 262.995C213.179 262.995 213.181 264.359 213.197 264.718C213.197 264.718 213.853 274.624 214.978 276.624C214.978 276.624 220.603 280.624 222.103 281.749C223.603 282.874 229.353 287.749 229.728 288.374C230.103 288.999 231.228 293.374 232.228 295.124C233.228 296.874 238.603 302.999 240.603 303.999C240.603 303.999 240.478 305.624 239.478 306.374C238.478 307.124 235.603 306.874 233.478 306.124C231.353 305.374 228.603 302.249 228.478 301.249C228.353 300.249 226.228 296.624 225.228 295.999C224.228 295.374 223.603 296.624 223.603 296.624L224.228 307.124V329.249C224.228 329.249 223.478 331.499 222.853 331.749C222.228 331.999 220.603 332.749 218.978 330.374C218.978 330.374 218.853 334.499 218.603 335.624C218.353 336.749 217.103 337.374 216.103 337.374C215.103 337.374 213.978 336.749 213.728 335.624C213.478 334.499 212.853 330.124 212.853 330.124C212.853 330.124 212.978 334.124 212.603 334.499C212.228 334.874 209.478 336.124 208.228 332.499C206.978 328.874 205.103 315.874 205.103 315.874L204.728 314.124L205.103 325.874C205.103 325.874 204.478 327.874 203.478 328.124C202.478 328.374 201.228 328.249 200.603 323.874C199.978 319.499 198.853 312.749 198.853 312.749L197.228 306.499C197.228 306.499 196.353 299.249 196.103 296.624C195.853 293.999 195.728 285.624 195.978 283.874C196.228 282.124 196.853 278.499 196.853 277.874C196.853 277.874 196.936 273.166 196.447 270.233C196.447 270.233 187.978 241.374 184.728 234.999C181.478 228.624 181.728 213.218 181.728 213.218C181.665 212.593 181.52 211.708 181.52 211.708L181.27 203.246V201.913C181.17 201.216 180.717 198.162 180.166 196.124C179.541 193.811 175.666 177.374 175.666 177.374C175.666 177.374 174.27 173.249 174.187 169.249C174.155 167.735 173.742 167.393 173.24 167.55C172.712 175.02 170.479 176.795 170.479 176.795C170.479 178.948 169.729 181.699 169.729 181.699C169.687 181.764 169.638 181.82 169.595 181.884C169.533 182.405 169.444 183.124 169.335 183.9C168.906 191.872 166.104 197.247 166.104 197.247C164.854 201.433 164.354 211.001 164.354 211.001C165.854 214.405 166.198 218.467 166.198 218.467C166.427 219.887 167.178 227.64 167.198 229.467C167.198 229.467 168.747 233.736 169.332 236.461C170.564 239.147 176.13 252.728 180.295 287.013C186.295 336.408 171.872 371.311 170.635 374.515C169.399 377.721 168.694 381.912 168.386 382.755C168.315 382.95 168.248 383.327 168.167 383.748C168.069 387.03 167.937 391.597 167.937 392.331C167.937 393.498 166.604 410.498 166.604 410.498L166.611 410.781C168.034 421.94 167.994 444.305 167.425 449.399C166.836 454.67 159.32 486.914 159.32 486.914C159.32 486.914 157.532 495.125 155.855 502.211C154.988 507.365 154.229 512.461 154.229 514.498C154.229 519.248 154.229 524.873 153.604 526.873C153.604 526.873 153.104 533.498 154.229 535.998C155.354 538.498 158.979 543.623 158.479 546.998C157.979 550.373 156.854 550.623 156.854 550.623C156.854 550.623 156.479 551.373 155.104 551.373C153.729 551.373 152.104 551.123 152.104 551.123C152.104 551.123 149.354 551.748 148.229 551.248C148.229 551.248 145.729 551.623 144.354 550.873C144.354 550.873 141.479 551.998 138.979 550.998C138.979 550.998 136.229 552.748 129.729 551.373C129.729 551.373 128.604 550.748 128.104 548.623C128.104 548.623 126.979 547.998 127.229 545.248C127.479 542.498 131.479 536.998 132.104 529.998C132.729 522.998 133.604 517.748 133.604 517.748C133.604 517.748 134.729 513.998 135.229 512.373C135.729 510.748 136.808 503.588 136.956 499.855C136.956 499.855 134.235 468.173 133.286 461.699C132.337 455.225 132.413 433.213 137.072 413.811C137.299 412.218 137.305 409.176 137.305 409.176C137.305 409.176 134.065 389.141 134.075 385.389C134.097 377.373 130.401 342.982 129.929 335.743C129.457 328.504 129.568 290.406 129.568 290.406C129.156 290.302 129.167 289.873 127.417 289.435C126.208 289.268 125.293 289.435 125.293 289.435C123.543 289.873 123.554 290.302 123.142 290.406C123.142 290.406 123.253 328.504 122.781 335.743C122.309 342.982 118.613 377.374 118.635 385.389C118.645 389.141 115.405 409.176 115.405 409.176C115.405 409.176 115.358 412.374 115.638 413.811C120.296 433.212 120.372 455.225 119.424 461.699C118.475 468.174 115.754 499.855 115.754 499.855C115.902 503.587 116.981 510.748 117.481 512.373C117.981 513.998 119.106 517.748 119.106 517.748C119.106 517.748 119.981 522.998 120.606 529.998C121.231 536.998 125.231 542.498 125.481 545.248C125.731 547.998 124.606 548.623 124.606 548.623C124.106 550.748 122.981 551.373 122.981 551.373C116.481 552.748 113.731 550.998 113.731 550.998C111.231 551.998 108.356 550.873 108.356 550.873C106.981 551.623 104.481 551.248 104.481 551.248C103.356 551.748 100.606 551.123 100.606 551.123C100.606 551.123 98.981 551.373 97.606 551.373C96.231 551.373 95.856 550.623 95.856 550.623C95.856 550.623 94.731 550.373 94.231 546.998C93.731 543.623 97.356 538.498 98.481 535.998C99.606 533.498 99.106 526.873 99.106 526.873C98.481 524.873 98.481 519.248 98.481 514.498C98.481 512.461 97.722 507.365 96.855 502.211C95.177 495.125 93.39 486.914 93.39 486.914C93.39 486.914 85.874 454.67 85.285 449.399C84.716 444.305 84.676 421.94 86.099 410.781L86.106 410.498C86.106 410.498 84.773 393.498 84.773 392.331C84.773 391.597 84.641 387.03 84.543 383.748C84.462 383.327 84.395 382.95 84.324 382.755C84.016 381.912 83.311 377.721 82.075 374.515C80.839 371.311 66.415 336.408 72.415 287.013C76.58 252.728 82.145 239.147 83.378 236.461C83.963 233.736 85.512 229.467 85.512 229.467C85.532 227.64 86.283 219.887 86.512 218.467C86.512 218.467 86.856 214.404 88.356 211.001C88.356 211.001 87.856 201.433 86.606 197.247C86.606 197.247 83.804 191.872 83.375 183.9C83.266 183.124 83.176 182.404 83.115 181.884C83.072 181.82 83.023 181.764 82.981 181.699C82.981 181.699 82.231 178.948 82.231 176.795C82.231 176.795 79.998 175.02 79.47 167.55C78.968 167.393 78.554 167.735 78.523 169.249C78.44 173.249 77.044 177.374 77.044 177.374C77.044 177.374 73.169 193.812 72.544 196.124C71.993 198.162 71.54 201.216 71.44 201.913V203.246L71.19 211.708C71.19 211.708 71.044 212.593 70.982 213.218C70.982 213.218 71.232 228.624 67.982 234.999C64.732 241.374 56.263 270.233 56.263 270.233C55.774 273.165 55.857 277.874 55.857 277.874C55.857 278.499 56.482 282.124 56.732 283.874C56.982 285.624 56.857 293.999 56.607 296.624C56.357 299.249 55.482 306.499 55.482 306.499L53.857 312.749C53.857 312.749 52.732 319.499 52.107 323.874C51.482 328.249 50.232 328.374 49.232 328.124C48.232 327.874 47.607 325.874 47.607 325.874L47.982 314.124L47.607 315.874C47.607 315.874 45.732 328.874 44.482 332.499C43.232 336.124 40.482 334.874 40.107 334.499C39.732 334.124 39.857 330.124 39.857 330.124C39.857 330.124 39.232 334.499 38.982 335.624C38.732 336.749 37.607 337.374 36.607 337.374C35.607 337.374 34.357 336.749 34.107 335.624C33.857 334.499 33.732 330.374 33.732 330.374C32.107 332.749 30.482 331.999 29.857 331.749C29.232 331.499 28.482 329.249 28.482 329.249V307.124L29.107 296.624C29.107 296.624 28.482 295.374 27.482 295.999C26.482 296.624 24.357 300.249 24.232 301.249C24.107 302.249 21.357 305.374 19.232 306.124C17.107 306.874 14.232 307.124 13.232 306.374C12.232 305.624 12.107 303.999 12.107 303.999C14.107 302.999 19.482 296.874 20.482 295.124C21.482 293.374 22.607 288.999 22.982 288.374C23.357 287.749 29.107 282.874 30.607 281.749C32.107 280.624 37.732 276.624 37.732 276.624C38.857 274.624 39.513 264.718 39.513 264.718C39.529 264.359 39.531 262.995 39.531 262.995C39.73 254.375 40.448 222.299 40.232 218.624C40.166 217.506 40.223 215.624 40.408 213.338C43.513 201.394 45.165 199.921 45.857 197.499C46.107 196.625 46.232 193.883 46.278 190.259C46.827 186.539 50.303 153.694 50.607 152.582C50.711 152.228 51.19 149.718 51.19 149.718C50.792 144.214 50.538 131.072 51.44 125.661C52.32 120.384 57.607 107.994 65.273 105.411C65.273 105.411 65.433 105.369 65.718 105.313C68.926 101.758 73.107 100.874 73.107 100.874C73.107 100.874 75.982 99.249 78.857 97.499C81.732 95.749 86.831 91.56 88.357 90.499C97.207 84.348 102.389 81.829 105.711 80.097C106.329 79.313 106.874 78.393 107.149 77.374C108.024 74.124 106.774 62.749 106.774 62.749C106.024 61.374 105.524 55.124 105.524 55.124C105.524 55.124 104.961 48.874 104.524 46.749C103.757 43.025 103.249 39.314 103.149 38.186C102.711 33.248 102.586 29.311 102.774 26.248C102.957 23.253 104.149 17.123 110.774 10.498C117.064 4.20805 125.48 4.00305 126.316 3.99805C126.316 3.99805 126.346 3.99805 126.358 3.99805C126.37 3.99805 126.4 3.99805 126.4 3.99805C127.235 4.00305 135.651 4.20705 141.942 10.498C148.567 17.123 149.759 23.253 149.942 26.248C150.13 29.311 150.005 33.248 149.567 38.186C149.467 39.313 148.959 43.025 148.192 46.749C147.754 48.874 147.192 55.124 147.192 55.124C147.192 55.124 146.692 61.374 145.942 62.749C145.942 62.749 144.692 74.124 145.567 77.374C145.805 78.257 146.248 79.062 146.763 79.772C150.239 81.817 155.97 84.906 164.357 90.499C165.903 91.53 170.982 95.749 173.857 97.499C176.732 99.249 179.607 100.874 179.607 100.874C179.607 100.874 183.788 101.758 186.996 105.313C187.281 105.37 187.441 105.411 187.441 105.411C195.108 107.994 200.394 120.384 201.274 125.661C202.176 131.072 201.922 144.214 201.524 149.718C201.52 149.717 201.769 151.665 202.103 152.582Z" fill="white" stroke="black" stroke-miterlimit="10"/>
  </g>
  <g id="fullBody" fill="#404040">
    <g id="middleChest">
      <path d="M176.02 136.707c-6.267 25.647-25.245 21.4-25.245 21.4-14.449-1.595-20.544-5.427-20.544-5.427-6.615-3.834.523-35 2.264-39.058.383-.894 1.045-2.404 1.933-3.709.927-1.362 1.057-1.378 3.158-1.695 1.451-.218 2.892-.236 4.36-.207 6.927.145 14.864.646 20.722 4.125 2.801 1.662 5.587 3.706 7.75 6.056 1.713 1.861 2.948 3.355 4.295 5.45.003 0 3.049 7.935 1.307 13.065"/>
      <path d="M78.515 136.707c6 25.647 24.167 21.4 24.167 21.4 13.833-1.595 19.667-5.427 19.667-5.427 6.333-3.834-.5-35-2.167-39.058-.367-.894-1-2.404-1.85-3.709-.888-1.362-1.012-1.378-3.024-1.695-1.389-.218-2.768-.236-4.173-.207-6.632.145-14.23.646-19.838 4.125-2.681 1.662-5.348 3.706-7.42 6.056-1.64 1.861-2.821 3.355-4.111 5.45-.002 0-2.918 7.935-1.251 13.065"/>
    </g>
    <g id="lowerChest">
      <path d="M81.5 145c5.5 17.5 21.182 13.107 21.182 13.107C116.5 157.5 123 152.5 123 152.5c4.5-4.5 1.5-19 1-19-.367-.894.736 5-.5 6.5-1.5 1-1.151 1-3 2-2 1-2 1-5 1.5-1.5.5-2.182 1.277-7.5 2-5.318.722-3 .5-7 1-2.5.5-7.5 0-11.5 0s-1.5 0-8-1.5"/>
      <path d="M172.902 145c-5.746 17.5-22.127 13.107-22.127 13.107-14.434-.607-21.224-5.607-21.224-5.607-4.701-4.5-1.567-19-1.045-19 .384-.894-.768 5 .523 6.5 1.567 1 1.202 1 3.134 2 2.089 1 2.089 1 5.223 1.5 1.566.5 2.278 1.277 7.834 2 5.555.722 3.134.5 7.312 1 2.612.5 7.835 0 12.013 0s1.567 0 8.357-1.5"/>
    </g>
    <g id="upperChest">
      <path d="M78.515 136.707C79.765 139 91.297 136 91.297 136c12.985-2.927 31.703-9.5 31.703-9.5 0-4.5-1.151-8.82-2.818-12.878-.367-.894-1-2.404-1.85-3.709-.888-1.362-1.012-1.378-3.024-1.695-1.389-.218-2.768-.236-4.173-.207-6.632.145-14.23.646-19.838 4.125-2.681 1.662-5.348 3.706-7.42 6.056-1.64 1.861-2.821 3.355-4.111 5.45-.002 0-2.918 7.935-1.251 13.065"/>
      <path d="M176.02 136.707C174.713 139 162.668 136 162.668 136c-13.564-2.927-33.117-9.5-33.117-9.5 0-4.5 1.203-8.82 2.944-12.878.383-.894 1.045-2.404 1.933-3.709.927-1.362 1.057-1.378 3.158-1.695 1.451-.218 2.892-.236 4.36-.207 6.927.145 14.864.646 20.722 4.125 2.801 1.662 5.587 3.706 7.75 6.056 1.713 1.861 2.948 3.355 4.295 5.45.003 0 3.049 7.935 1.307 13.065"/>
    </g>
    <g id="shoulders">
      <path d="M65.375 106.077C65.375 106.077 69.458 104.994 74.125 106.332C74.125 106.332 95.625 106.082 98.958 105.665C98.958 105.665 77.625 112.165 74.625 132.332C74.625 132.332 73.792 138.248 72.625 140.165C71.458 142.082 62.417 148.227 52.833 168.978C52.833 168.978 52.041 154.828 51.541 152.661C51.041 150.494 50.458 132.828 51.541 126.328C52.421 121.05 57.708 108.66 65.375 106.077ZM187.433 106.077C187.433 106.077 183.35 104.994 178.683 106.332C178.683 106.332 157.183 106.082 153.85 105.665C153.85 105.665 175.183 112.165 178.183 132.332C178.183 132.332 179.016 138.248 180.183 140.165C181.35 142.082 190.391 148.227 199.975 168.978C199.975 168.978 200.767 154.828 201.267 152.661C201.767 150.494 202.35 132.828 201.267 126.328C200.386 121.05 195.1 108.66 187.433 106.077Z"/>
    </g>
    <g id="triceps">
      <path d="M50.708 153.249C50.708 153.249 51.791 169.748 52.041 170.831C52.041 170.831 51.166 171.79 51.041 172.624C50.916 173.457 48.708 185.958 47.708 198.082C47.708 198.082 45.958 193.165 46.333 191.228C46.708 189.291 50.396 154.394 50.708 153.249ZM71.521 202.727C71.521 202.727 67.021 198.539 67.208 195.602C67.208 195.602 66.958 195.039 67.833 193.727C68.708 192.415 76.396 180.352 77.146 178.039C77.146 178.039 73.271 194.477 72.646 196.789C72.021 199.101 71.521 202.727 71.521 202.727ZM202.1 153.249C202.1 153.249 201.017 169.748 200.767 170.831C200.767 170.831 201.642 171.79 201.767 172.624C201.892 173.457 204.1 185.958 205.1 198.082C205.1 198.082 206.85 193.165 206.475 191.228C206.1 189.291 202.412 154.394 202.1 153.249ZM181.287 202.727C181.287 202.727 185.787 198.539 185.6 195.602C185.6 195.602 185.85 195.039 184.975 193.727C184.1 192.415 176.412 180.352 175.662 178.039C175.662 178.039 179.537 194.477 180.162 196.789C180.787 199.101 181.287 202.727 181.287 202.727Z"/>
    </g>
    <g id="absUpper">
      <path d="M124.208 158.922C124.208 158.922 125.583 160.955 125.583 162.272C125.583 163.587 125.583 171.362 125.583 171.362C125.583 171.362 125.458 173.275 123.333 174.591C121.208 175.907 106.083 182.365 105.083 183.321C104.083 184.278 101.958 184.996 101.208 184.159C100.458 183.321 99.708 181.528 99.708 178.179C99.708 174.83 98.958 166.339 104.333 162.033C109.708 157.727 121.708 157.846 124.208 158.922ZM124.458 179.853C124.458 179.853 124.083 177.7 122.083 177.341C120.083 176.982 115.583 179.733 115.583 179.733L103.458 186.431C103.458 186.431 102.458 186.789 101.958 186.789C101.458 186.789 101.583 191.932 101.583 192.65C101.583 193.367 101.583 195.879 102.458 197.075C103.333 198.271 107.333 195.879 108.958 195.281C110.583 194.683 118.583 192.888 121.958 193.248C125.333 193.606 125.083 190.497 125.083 190.497C125.083 190.497 125.333 182.125 124.458 179.853ZM120.083 194.922C120.083 194.922 124.458 194.564 125.083 196.955C125.708 199.348 125.333 205.208 125.208 206.284C125.083 207.361 122.708 211.068 120.208 212.025C117.708 212.982 111.333 212.025 106.083 213.101C106.083 213.101 103.333 213.939 103.208 211.427C103.083 208.915 102.208 201.261 102.958 200.304C103.708 199.347 113.458 195.401 120.083 194.922ZM128.6 158.922C128.6 158.922 127.225 160.955 127.225 162.272C127.225 163.587 127.225 171.362 127.225 171.362C127.225 171.362 127.35 173.275 129.475 174.591C131.6 175.907 146.725 182.365 147.725 183.321C148.725 184.278 150.85 184.996 151.6 184.159C152.35 183.321 153.1 181.528 153.1 178.179C153.1 174.83 153.85 166.339 148.475 162.033C143.1 157.727 131.1 157.846 128.6 158.922ZM128.35 179.853C128.35 179.853 128.725 177.7 130.725 177.341C132.725 176.982 137.225 179.733 137.225 179.733L149.35 186.431C149.35 186.431 150.35 186.789 150.85 186.789C151.35 186.789 151.225 191.932 151.225 192.65C151.225 193.367 151.225 195.879 150.35 197.075C149.475 198.271 145.475 195.879 143.85 195.281C142.225 194.683 134.225 192.888 130.85 193.248C127.475 193.606 127.725 190.497 127.725 190.497C127.725 190.497 127.475 182.125 128.35 179.853ZM132.725 194.922C132.725 194.922 128.35 194.564 127.725 196.955C127.1 199.348 127.475 205.208 127.6 206.284C127.725 207.361 130.1 211.068 132.6 212.025C135.1 212.982 141.475 212.025 146.725 213.101C146.725 213.101 149.475 213.939 149.6 211.427C149.725 208.915 150.6 201.261 149.85 200.304C149.1 199.347 139.35 195.401 132.725 194.922Z" />
    </g>
    <g id="absLower">
      <path d="M124.458 219.165C124.333 216.772 119.458 213.94 119.458 213.94C117.5 214.581 108.416 214.256 106.583 214.415C104.75 214.574 104.083 217.764 103.083 221.591C102.083 225.418 104.219 242.499 104.958 245.915C107.583 258.04 113.458 271.54 114.833 274.415C115.299 275.389 117.958 279.048 119.458 279.368C120.958 279.686 124.458 280.165 124.458 280.165C125.291 278.89 124.708 253.29 124.708 248.29C124.708 241.72 124.583 221.558 124.458 219.165Z"/>
      <path d="M128.35 219.165C128.475 216.772 133.35 213.94 133.35 213.94C135.308 214.581 144.392 214.256 146.225 214.415C148.058 214.574 148.725 217.764 149.725 221.591C150.725 225.418 148.589 242.499 147.85 245.915C145.225 258.04 139.35 271.54 137.975 274.415C137.509 275.389 134.85 279.048 133.35 279.368C131.85 279.686 128.35 280.165 128.35 280.165C127.517 278.89 128.1 253.29 128.1 248.29C128.1 241.72 128.225 221.558 128.35 219.165Z"/>
    </g>
    <g id="calves">
      <path d="M115.74 414.479C115.74 414.479 115.564 420.225 112.708 423.639C109.852 427.053 106.333 430.664 105.333 438.914C104.268 447.703 108.708 481.789 115.856 500.521C115.856 500.521 118.577 468.839 119.526 462.365C120.475 455.893 120.398 433.879 115.74 414.479ZM137.067 414.479C137.067 414.479 137.243 420.225 140.099 423.639C142.955 427.053 146.474 430.664 147.474 438.914C148.539 447.703 144.099 481.789 136.951 500.521C136.951 500.521 134.23 468.839 133.281 462.365C132.333 455.893 132.409 433.879 137.067 414.479Z"/>
    </g>
    <g id="abductors">
      <path d="M118.737 386.057C118.715 378.041 122.411 343.649 122.883 336.411C123.355 329.171 122.75 290.332 122.75 290.332C112.875 284.332 106.208 261.79 102.208 255.165C100.451 252.255 94.833 246.665 92.911 245.2C91.786 244.343 90.031 243.308 89.25 242.332C87.583 240.249 85.708 234.331 85.708 234.331C83.708 236.499 84.51 238.671 86.208 247.499C87.041 251.832 87.208 255.165 88.541 256.665C104.598 274.727 106.662 293.483 109.208 303.665C110.708 309.665 113.302 333.751 115.083 347.248C115.666 351.665 116.541 360.664 116.595 370.889C116.375 385.664 112.899 388.2 112.503 389.493C112.086 390.854 110.861 398.196 112.195 403.614C113.53 409.032 115.506 409.844 115.506 409.844C115.506 409.844 118.747 389.809 118.737 386.057ZM134.071 386.057C134.093 378.041 130.397 343.649 129.925 336.411C129.453 329.171 130.058 290.332 130.058 290.332C139.933 284.332 146.6 261.79 150.6 255.165C152.357 252.255 157.975 246.665 159.897 245.2C161.022 244.343 162.777 243.308 163.558 242.332C165.225 240.249 167.1 234.331 167.1 234.331C169.1 236.499 168.298 238.671 166.6 247.499C165.767 251.832 165.6 255.165 164.267 256.665C148.21 274.727 146.146 293.483 143.6 303.665C142.1 309.665 139.506 333.751 137.725 347.248C137.142 351.665 136.267 360.664 136.213 370.889C136.433 385.664 139.909 388.2 140.305 389.493C140.722 390.854 141.947 398.196 140.613 403.614C139.278 409.032 137.302 409.844 137.302 409.844C137.302 409.844 134.061 389.809 134.071 386.057Z"/>
    </g>
    <g id="neck">
      <path d="M107.229 62.772C107.229 62.772 108.175 80.73 108.427 82.715C108.679 84.701 109.184 100.32 107.923 102.173C107.923 102.173 112.043 100.673 114.985 100.585C115.993 100.555 119.651 100.982 123.433 104.557C123.433 104.557 125.325 105.549 125.703 105.285C126.081 105.02 119.945 90.438 119.083 87.481C116.268 77.825 115.91 72.127 115.153 70.936C114.396 69.744 107.733 64.228 107.229 62.772ZM145.579 62.772C145.579 62.772 144.633 80.73 144.381 82.715C144.129 84.701 143.624 100.32 144.885 102.173C144.885 102.173 140.765 100.673 137.823 100.585C136.815 100.555 133.157 100.982 129.375 104.557C129.375 104.557 127.483 105.549 127.105 105.285C126.727 105.02 132.863 90.438 133.725 87.481C136.54 77.825 136.898 72.127 137.655 70.936C138.412 69.744 145.074 64.228 145.579 62.772Z"/>
    </g>
    <g id="quadriceps">
      <path d="M143.933 309.498C143.933 309.498 140.725 337.831 139.391 347.831C138.344 355.683 133.364 388.834 145.597 390.793C153.261 389.254 155.766 382.998 156.766 380.664C157.766 378.332 161.099 374.498 161.099 374.498C167.266 370.164 168.663 365.408 168.663 365.408C173.793 353.244 178.554 324.523 175.432 287.935C175.432 287.935 174.055 282.214 172.765 279.5C168.937 271.439 165.932 261.334 164.932 258.5C164.932 258.5 152.266 266.495 143.933 309.498ZM108.875 309.498C108.875 309.498 112.083 337.831 113.417 347.831C114.464 355.683 119.444 388.834 107.211 390.793C99.547 389.254 97.042 382.998 96.042 380.664C95.042 378.332 91.709 374.498 91.709 374.498C85.542 370.164 84.145 365.408 84.145 365.408C79.015 353.244 74.254 324.523 77.376 287.935C77.376 287.935 78.753 282.214 80.043 279.5C83.871 271.439 86.876 261.334 87.876 258.5C87.876 258.5 100.542 266.495 108.875 309.498Z"/>
    </g>
    <g id="forearms">
      <path d="M200.725 209.415C203.89 204.668 205.685 199.661 206.618 196.423C206.68 197.236 206.756 197.835 206.85 198.165C207.542 200.587 209.193 202.06 212.299 214.004C212.485 216.29 212.541 218.173 212.475 219.29C212.225 223.54 213.225 265.79 213.225 265.79C212.35 259.165 205.1 239.665 202.6 228.29C200.1 216.915 200.725 209.415 200.725 209.415ZM52.083 209.415C48.918 204.668 47.123 199.661 46.19 196.423C46.128 197.236 46.052 197.835 45.958 198.165C45.266 200.587 43.615 202.06 40.509 214.004C40.323 216.29 40.267 218.173 40.333 219.29C40.583 223.54 39.583 265.79 39.583 265.79C40.458 259.165 47.708 239.665 50.208 228.29C52.708 216.915 52.083 209.415 52.083 209.415Z" />
      <path d="M52.708 210.727C52.708 210.727 53.167 209.028 54.708 208.227C56.271 207.414 59.708 204.039 59.708 204.039C59.708 204.039 63.458 209.539 71.083 213.414C71.083 213.414 71.333 229.289 68.083 235.664C64.833 242.039 56.354 270.914 56.354 270.914C56.354 270.914 49.272 272.529 44.791 272.081C41.458 271.748 39.958 270.914 39.958 270.914C39.958 270.914 41.958 258.414 43.458 253.914C44.958 249.414 54.833 225.477 52.708 210.727ZM200.1 210.727C200.1 210.727 199.641 209.028 198.1 208.227C196.537 207.414 193.1 204.039 193.1 204.039C193.1 204.039 189.35 209.539 181.725 213.414C181.725 213.414 181.475 229.289 184.725 235.664C187.975 242.039 196.454 270.914 196.454 270.914C196.454 270.914 203.536 272.529 208.017 272.081C211.35 271.748 212.85 270.914 212.85 270.914C212.85 270.914 210.85 258.414 209.35 253.914C207.85 249.414 197.975 225.477 200.1 210.727Z" />
    </g>
    <g id="traps">
      <path d="M106.809 79.04C107.116 82.126 107.341 85.261 107.491 88.362C107.611 90.848 107.429 93.319 107.365 95.803C107.32 97.544 107.726 99.872 106.548 101.332C104.309 104.106 98.499 103.603 95.4 103.625C91.496 103.653 87.589 103.714 83.686 103.774C80.002 103.83 76.618 101.332 72.918 101.332C72.918 101.332 75.834 99.707 79.001 97.957C82.168 96.207 87.403 91.832 88.918 90.582C90.433 89.332 103.917 80.665 106.809 79.04ZM145.999 79.04C145.692 82.126 145.467 85.261 145.317 88.362C145.197 90.848 145.379 93.319 145.443 95.803C145.488 97.544 145.082 99.872 146.26 101.332C148.499 104.106 154.309 103.603 157.408 103.625C161.312 103.653 165.219 103.714 169.122 103.774C172.806 103.83 176.19 101.332 179.89 101.332C179.89 101.332 176.974 99.707 173.807 97.957C170.64 96.207 165.405 91.832 163.89 90.582C162.375 89.332 148.891 80.665 145.999 79.04Z"/>
    </g>
    <g id="biceps">
      <path d="M76.792 175.328C78.375 167.745 78.208 147.919 75.375 138.832C75.375 138.832 75.12 138.756 74.524 139.4L74.542 139.331C74.542 139.331 73.042 141.331 70.959 143.248C68.876 145.165 59.709 156.081 52.126 172.498C52.126 172.498 49.459 184.745 48.376 199.828C48.376 199.828 49.397 203.101 52.793 208.744C52.793 208.744 57.959 204.162 59.376 203.078C59.376 203.078 60.027 202.749 60.583 202.981C62.631 207.401 71.293 212.373 71.293 212.373L71.543 203.91C71.543 203.91 65.709 199.077 66.376 195.16C67.042 191.245 75.208 182.911 76.792 175.328ZM176.016 175.328C174.433 167.745 174.6 147.919 177.433 138.832C177.433 138.832 177.688 138.756 178.284 139.4L178.266 139.331C178.266 139.331 179.766 141.331 181.849 143.248C183.932 145.165 193.099 156.081 200.682 172.498C200.682 172.498 203.349 184.745 204.432 199.828C204.432 199.828 203.411 203.101 200.015 208.744C200.015 208.744 194.849 204.162 193.432 203.078C193.432 203.078 192.781 202.749 192.225 202.981C190.177 207.401 181.515 212.373 181.515 212.373L181.265 203.91C181.265 203.91 187.099 199.077 186.432 195.16C185.766 191.245 177.599 182.911 176.016 175.328Z"/>
    </g>
    <path d="M102.597 500.615C102.597 500.615 107.778 519.283 104.726 520.939C101.674 522.597 100.601 516.812 98.8 510.253C96.999 503.694 93.491 487.579 93.491 487.579C93.491 487.579 85.975 455.335 85.386 450.065C84.797 444.794 84.774 421.032 86.353 410.325C86.353 410.325 85.707 439.569 88.839 451.671C91.97 463.773 102.597 500.615 102.597 500.615ZM150.21 500.615C150.21 500.615 145.029 519.283 148.081 520.939C151.133 522.597 152.206 516.812 154.007 510.253C155.808 503.694 159.316 487.579 159.316 487.579C159.316 487.579 166.832 455.335 167.421 450.065C168.01 444.794 168.033 421.032 166.454 410.325C166.454 410.325 167.1 439.569 163.968 451.671C160.838 463.773 150.21 500.615 150.21 500.615Z"/>
    <g id="absObliques">
      <path d="M173.225 144.332C173.225 144.332 172.35 157.966 155.475 161.913L156.35 163.349C156.35 163.349 153.975 168.97 155.35 172.558C156.725 176.146 158.225 176.386 158.225 176.386C158.225 176.386 155.225 180.212 155.1 183.562C154.975 186.911 155.6 188.944 157.225 189.662C157.225 189.662 165.725 188.586 169.725 182.366C169.725 182.366 170.475 179.615 170.475 177.463C170.475 177.463 173.35 175.19 173.35 164.904C173.35 164.904 173.725 164.186 173.975 162.511C174.225 160.836 175.6 152.943 173.225 144.332ZM169.35 184.278C169.35 184.278 165.6 188.585 157.6 190.737C157.6 190.737 154.1 193.607 154.1 197.554C154.1 201.5 154.975 203.295 155.725 203.533C155.725 203.533 153.1 207.241 153.225 210.23C153.35 213.22 154.225 215.613 156.35 215.972C156.35 215.972 162.1 214.656 164.35 211.665C164.35 211.665 164.85 202.097 166.1 197.911C166.1 197.913 168.975 192.411 169.35 184.278ZM164.808 213.665C164.808 213.665 163.475 215.648 154.6 218.415C154.6 218.415 151.975 219.924 152.1 224.577C152.225 229.229 151.475 243.763 149.6 248.29C149.6 248.29 161.517 238.714 166.892 230.415C166.892 230.415 165.975 218.467 165.725 216.832C165.475 215.197 165.641 215.165 164.808 213.665ZM79.583 144.332C79.583 144.332 80.458 157.966 97.333 161.913L96.458 163.349C96.458 163.349 98.833 168.97 97.458 172.558C96.083 176.146 94.583 176.386 94.583 176.386C94.583 176.386 97.583 180.212 97.708 183.562C97.833 186.911 97.208 188.944 95.583 189.662C95.583 189.662 87.083 188.586 83.083 182.366C83.083 182.366 82.333 179.615 82.333 177.463C82.333 177.463 79.458 175.19 79.458 164.904C79.458 164.904 79.083 164.186 78.833 162.511C78.583 160.836 77.208 152.943 79.583 144.332ZM83.458 184.278C83.458 184.278 87.208 188.585 95.208 190.737C95.208 190.737 98.708 193.607 98.708 197.554C98.708 201.5 97.833 203.295 97.083 203.533C97.083 203.533 99.708 207.241 99.583 210.23C99.458 213.22 98.583 215.613 96.458 215.972C96.458 215.972 90.708 214.656 88.458 211.665C88.458 211.665 87.958 202.097 86.708 197.911C86.708 197.913 83.833 192.411 83.458 184.278ZM88 213.665C88 213.665 89.333 215.648 98.208 218.415C98.208 218.415 100.833 219.924 100.708 224.577C100.583 229.229 101.333 243.763 103.208 248.29C103.208 248.29 91.291 238.714 85.916 230.415C85.916 230.415 86.833 218.467 87.083 216.832C87.333 215.197 87.167 215.165 88 213.665Z"/>
    </g>
    <g id="hipFlexors">
      <path d="M169.866 238.603C169.866 238.603 167.737 252.799 167.731 256.677C167.725 260.553 168.131 263.605 168.813 265.46C169.496 267.315 175.775 282.505 177.197 288.089C178.619 293.673 181.663 357.694 165.394 376.366C165.394 376.366 165.134 384.212 166.896 387.325C168.659 390.44 168.226 386.38 168.391 385.499C168.891 382.832 169.374 379.66 170.224 376.332C171.224 372.416 185.932 338.374 180.891 289.749C176.642 248.768 169.866 238.603 169.866 238.603ZM82.941 238.603C82.941 238.603 85.07 252.799 85.076 256.677C85.082 260.553 84.676 263.605 83.994 265.46C83.311 267.315 77.032 282.505 75.61 288.089C74.188 293.673 71.144 357.694 87.413 376.366C87.413 376.366 87.673 384.212 85.911 387.325C84.148 390.44 84.581 386.38 84.416 385.499C83.916 382.832 83.433 379.66 82.583 376.332C81.583 372.416 66.875 338.374 71.916 289.749C76.166 248.768 82.941 238.603 82.941 238.603Z"/>
    </g>
    <path d="M89.717 406.646C89.717 406.646 95.333 413.289 97.708 423.164C99.261 429.623 113.633 515.93 113.633 515.93C113.633 515.93 112.043 518.883 108.1 508.758C104.158 498.633 96.646 474.391 95.278 470.098C93.908 465.803 90.02 453.928 89.192 440.147C88.364 426.366 86.711 406.805 89.717 406.646ZM163.09 406.646C163.09 406.646 157.474 413.289 155.099 423.164C153.546 429.623 139.174 515.93 139.174 515.93C139.174 515.93 140.764 518.883 144.707 508.758C148.649 498.633 156.161 474.391 157.529 470.098C158.899 465.803 162.787 453.928 163.615 440.147C164.443 426.366 166.097 406.805 163.09 406.646Z"/>
  </g>
</svg>
