<svg width="593" height="597" viewBox="0 0 593 597" fill="none" xmlns="http://www.w3.org/2000/svg">
<g clip-path="url(#clip0_20_102)">
<path d="M296.5 592.5C457.767 592.5 588.5 461.767 588.5 300.5C588.5 139.233 457.767 8.5 296.5 8.5C135.233 8.5 4.5 139.233 4.5 300.5C4.5 461.767 135.233 592.5 296.5 592.5Z" stroke="white" stroke-width="9" stroke-dasharray="18 18"/>
<path d="M297 573C446.117 573 567 452.117 567 303C567 153.883 446.117 33 297 33C147.883 33 27 153.883 27 303C27 452.117 147.883 573 297 573Z" fill="white"/>
<path d="M296 554C435.728 554 549 440.728 549 301C549 161.272 435.728 48 296 48C156.272 48 43 161.272 43 301C43 440.728 156.272 554 296 554Z" fill="#191F2B"/>
<path d="M97 449.5L77.5 468L87 479L106 460L97 449.5Z" fill="#1A1F2C"/>
<path d="M98.5 149.5L74.5 125L82.5 115.5L108.5 135.5L98.5 149.5Z" fill="#1A1F2C"/>
<path d="M485 136.5C492 130.333 506.3 118 507.5 118L519 124.5L495.5 150L485 136.5Z" fill="#1A1F2C"/>
<path d="M516 470L496 451L485 462L505.5 480L516 470Z" fill="#1A1F2C"/>
<path d="M93.5 453L100 329H112L109.5 475.5L93.5 453Z" fill="white"/>
<path d="M187 532L190.5 381.5H204.5L203 537L187 532Z" fill="white"/>
<path d="M230.5 546.5L231.5 412.5H246L244.5 550L230.5 546.5Z" fill="white"/>
<path d="M258 554L259 487.5H273.5L273 554H258Z" fill="white"/>
<path d="M293 542V435.5H306V546L293 542Z" fill="white"/>
<path d="M348 552.5L346.5 412.5L362 411.5L364.5 549L348 552.5Z" fill="white"/>
<path d="M389.5 539V381.5L403 380.5L405.5 531.5L389.5 539Z" fill="white"/>
<path d="M434.5 513.5L436 358H450L450.5 503.5L434.5 513.5Z" fill="white"/>
<path d="M485 470L481 326H494L498.5 453.5L485 470Z" fill="white"/>
<path d="M296.5 170C321.629 170 342 149.629 342 124.5C342 99.371 321.629 79 296.5 79C271.371 79 251 99.371 251 124.5C251 149.629 271.371 170 296.5 170Z" fill="white"/>
<path d="M296 153C311.464 153 324 140.464 324 125C324 109.536 311.464 97 296 97C280.536 97 268 109.536 268 125C268 140.464 280.536 153 296 153Z" fill="#191F2B"/>
<path d="M296.5 386L191.5 275.5L216 274L296.5 361.5L374.5 276.5H401L296.5 386Z" fill="white"/>
<path d="M278.5 245L299.5 342L308.5 334.5L337.5 259.5H411.5L412.5 319L429 308.5V180.5L412.5 165L411.5 239.5H326L306.5 283L292.5 205.5L285 199.5L278.5 208.5L266 225.5L257 239.5H180.5V163L164 177V307.5L180.5 316.5V259.5H260L266 263L278.5 245Z" fill="white"/>
<path d="M455 292.5L440.5 299V186.5L455 194V292.5Z" fill="white"/>
<path d="M467 278.5V211.5L484 220V239.5H503V258H484V272.5L467 278.5Z" fill="white"/>
<path d="M138 292.75L152.5 299.25V186.75L138 194.25V292.75Z" fill="white"/>
<path d="M126 278.75V211.75L109 220.25V239.75H90V258.25H109V272.75L126 278.75Z" fill="white"/>
<path d="M106.5 331C116.717 331 125 322.717 125 312.5C125 302.283 116.717 294 106.5 294C96.2827 294 88 302.283 88 312.5C88 322.717 96.2827 331 106.5 331Z" fill="#159CD5"/>
<path d="M151.5 360C161.717 360 170 351.717 170 341.5C170 331.283 161.717 323 151.5 323C141.283 323 133 331.283 133 341.5C133 351.717 141.283 360 151.5 360Z" fill="#159CD5"/>
<path d="M198.5 383C208.717 383 217 374.717 217 364.5C217 354.283 208.717 346 198.5 346C188.283 346 180 354.283 180 364.5C180 374.717 188.283 383 198.5 383Z" fill="#159CD5"/>
<path d="M239.5 416C249.717 416 258 407.717 258 397.5C258 387.283 249.717 379 239.5 379C229.283 379 221 387.283 221 397.5C221 407.717 229.283 416 239.5 416Z" fill="#159CD5"/>
<path d="M266.5 489C276.717 489 285 480.717 285 470.5C285 460.283 276.717 452 266.5 452C256.283 452 248 460.283 248 470.5C248 480.717 256.283 489 266.5 489Z" fill="#159CD5"/>
<path d="M299.5 437C309.717 437 318 428.717 318 418.5C318 408.283 309.717 400 299.5 400C289.283 400 281 408.283 281 418.5C281 428.717 289.283 437 299.5 437Z" fill="#159CD5"/>
<path d="M353.5 415C363.717 415 372 406.717 372 396.5C372 386.283 363.717 378 353.5 378C343.283 378 335 386.283 335 396.5C335 406.717 343.283 415 353.5 415Z" fill="#159CD5"/>
<path d="M395.5 383C405.717 383 414 374.717 414 364.5C414 354.283 405.717 346 395.5 346C385.283 346 377 354.283 377 364.5C377 374.717 385.283 383 395.5 383Z" fill="#159CD5"/>
<path d="M461.5 340.5C461.5 350.717 453.217 359 443 359C432.783 359 424.5 350.717 424.5 340.5C424.5 330.283 432.783 322 443 322C453.217 322 461.5 330.283 461.5 340.5Z" fill="#159CD5"/>
<path d="M487.5 329C497.717 329 506 320.717 506 310.5C506 300.283 497.717 292 487.5 292C477.283 292 469 300.283 469 310.5C469 320.717 477.283 329 487.5 329Z" fill="#159CD5"/>
<path d="M144.5 431V358.5H158L156.5 513L142 503L144.5 431Z" fill="white"/>
<path d="M564.5 326C578.031 326 589 315.031 589 301.5C589 287.969 578.031 277 564.5 277C550.969 277 540 287.969 540 301.5C540 315.031 550.969 326 564.5 326Z" fill="#1A1F2C"/>
<path d="M564.5 317C573.06 317 580 310.06 580 301.5C580 292.94 573.06 286 564.5 286C555.94 286 549 292.94 549 301.5C549 310.06 555.94 317 564.5 317Z" fill="#159CD5"/>
<path d="M527.5 129C541.031 129 552 118.031 552 104.5C552 90.969 541.031 80 527.5 80C513.969 80 503 90.969 503 104.5C503 118.031 513.969 129 527.5 129Z" fill="#1A1F2C"/>
<path d="M527.5 120C536.06 120 543 113.06 543 104.5C543 95.9396 536.06 89 527.5 89C518.94 89 512 95.9396 512 104.5C512 113.06 518.94 120 527.5 120Z" fill="#159CD5"/>
<path d="M296.5 49C310.031 49 321 38.031 321 24.5C321 10.969 310.031 0 296.5 0C282.969 0 272 10.969 272 24.5C272 38.031 282.969 49 296.5 49Z" fill="#1A1F2C"/>
<path d="M296.5 40C305.06 40 312 33.0604 312 24.5C312 15.9396 305.06 9 296.5 9C287.94 9 281 15.9396 281 24.5C281 33.0604 287.94 40 296.5 40Z" fill="#159CD5"/>
<path d="M62.5 129C76.031 129 87 118.031 87 104.5C87 90.969 76.031 80 62.5 80C48.969 80 38 90.969 38 104.5C38 118.031 48.969 129 62.5 129Z" fill="#1A1F2C"/>
<path d="M62.5 120C71.0604 120 78 113.06 78 104.5C78 95.9396 71.0604 89 62.5 89C53.9396 89 47 95.9396 47 104.5C47 113.06 53.9396 120 62.5 120Z" fill="#159CD5"/>
<path d="M24.5 327C38.031 327 49 316.031 49 302.5C49 288.969 38.031 278 24.5 278C10.969 278 0 288.969 0 302.5C0 316.031 10.969 327 24.5 327Z" fill="#1A1F2C"/>
<path d="M24.5 318C33.0604 318 40 311.06 40 302.5C40 293.94 33.0604 287 24.5 287C15.9396 287 9 293.94 9 302.5C9 311.06 15.9396 318 24.5 318Z" fill="#159CD5"/>
<path d="M64.5 513C78.031 513 89 502.031 89 488.5C89 474.969 78.031 464 64.5 464C50.969 464 40 474.969 40 488.5C40 502.031 50.969 513 64.5 513Z" fill="#1A1F2C"/>
<path d="M64.5 504C73.0604 504 80 497.06 80 488.5C80 479.94 73.0604 473 64.5 473C55.9396 473 49 479.94 49 488.5C49 497.06 55.9396 504 64.5 504Z" fill="#159CD5"/>
<path d="M296.5 587C310.031 587 321 576.031 321 562.5C321 548.969 310.031 538 296.5 538C282.969 538 272 548.969 272 562.5C272 576.031 282.969 587 296.5 587Z" fill="#1A1F2C"/>
<path d="M296.5 578C305.06 578 312 571.06 312 562.5C312 553.94 305.06 547 296.5 547C287.94 547 281 553.94 281 562.5C281 571.06 287.94 578 296.5 578Z" fill="#159CD5"/>
<path d="M527.5 513C541.031 513 552 502.031 552 488.5C552 474.969 541.031 464 527.5 464C513.969 464 503 474.969 503 488.5C503 502.031 513.969 513 527.5 513Z" fill="#1A1F2C"/>
<path d="M527.5 504C536.06 504 543 497.06 543 488.5C543 479.94 536.06 473 527.5 473C518.94 473 512 479.94 512 488.5C512 497.06 518.94 504 527.5 504Z" fill="#159CD5"/>
<path d="M305.5 197L315.5 180.798C330.224 162.161 357.155 163.065 377 175C385.5 180.112 397.907 195.089 407 206.599H385C382.581 202.468 379.157 197.462 377 194.5C369.934 184.796 364.726 182.421 354 181.5C346.319 181.815 332.5 183.5 324 190.5L307.5 206.599H299.5C299.5 206.599 286 190.99 282.5 188.995C279 187 258.132 180.5 249.437 180.798C240.742 181.096 231.473 188.995 229.068 191.929C226.664 194.863 215.843 211 215.843 211H191.5C203.801 195.43 209.345 177.23 229.068 171.5C246 165 279.484 166.221 291 180.798L301 197C301.916 198.117 304.584 198.117 305.5 197Z" fill="white"/>
</g>
<defs>
<clipPath id="clip0_20_102">
<rect width="593" height="597" fill="white"/>
</clipPath>
</defs>
</svg>
